<svg width="39" height="40" viewBox="0 0 39 40" fill="none" xmlns="http://www.w3.org/2000/svg">
<g clip-path="url(#clip0_810_1923)">
<path d="M20.5403 19.4051L29.1985 31.7895H25.6452L18.5798 21.6838V21.6832L17.5425 20.1997L9.28906 8.3938H12.8424L19.503 17.9216L20.5403 19.4051Z" fill="white"/>
<path d="M34.3333 0.824951H4.17293C1.87697 0.824951 0.015625 2.6863 0.015625 4.98226V35.1426C0.015625 37.4386 1.87697 39.2999 4.17293 39.2999H34.3333C36.6293 39.2999 38.4906 37.4386 38.4906 35.1426V4.98226C38.4906 2.6863 36.6293 0.824951 34.3333 0.824951ZM24.5562 33.4525L17.4065 23.047L8.45504 33.4525H6.14152L16.3793 21.5525L6.14152 6.65264H13.95L20.7203 16.5059L29.1967 6.65264H31.5103L21.7479 18.0007H21.7473L32.3647 33.4525H24.5562Z" fill="white"/>
</g>
<defs>
<clipPath id="clip0_810_1923">
<rect width="38.475" height="38.475" fill="white" transform="translate(0.015625 0.824951)"/>
</clipPath>
</defs>
</svg>
